{
  "accessors": [
    {
      "bufferView": 2,
      "componentType": 5126,
      "count": 4098,
      "max": [
        0.3353443443775177,
        1.1045963764190674,
        1.8790595531463623
      ],
      "min": [
        -0.9838898181915283,
        -0.6185407638549805,
        -1.9192653894424438
      ],
      "type": "VEC3"
    },
    {
      "bufferView": 2,
      "byteOffset": 49176,
      "componentType": 5126,
      "count": 4098,
      "max": [
        1.0,
        1.0,
        0.9999995231628418
      ],
      "min": [
        -1.0,
        -1.0,
        -0.9999995231628418
      ],
      "type": "VEC3"
    },
    {
      "bufferView": 3,
      "componentType": 5126,
      "count": 4098,
      "max": [
        0.9999995827674866,
        1.0,
        0.8265472650527954,
        -1.0
      ],
      "min": [
        -1.0,
        -1.0,
        -0.873792290687561,
        -1.0
      ],
      "type": "VEC4"
    },
    {
      "bufferView": 1,
      "componentType": 5126,
      "count": 4098,
      "max": [
        0.9950749278068542,
        0.995074987411499
      ],
      "min": [
        0.0049250079318881035,
        0.037183523178100586
      ],
      "type": "VEC2"
    },
    {
      "bufferView": 1,
      "byteOffset": 32784,
      "componentType": 5126,
      "count": 4098,
      "max": [
        0.9950749278068542,
        0.995074987411499
      ],
      "min": [
        0.0049250079318881035,
        0.037183523178100586
      ],
      "type": "VEC2"
    },
    {
      "bufferView": 1,
      "byteOffset": 65568,
      "componentType": 5126,
      "count": 4098,
      "max": [
        0.9950749278068542,
        0.995074987411499
      ],
      "min": [
        0.0049250079318881035,
        0.037183523178100586
      ],
      "type": "VEC2"
    },
    {
      "bufferView": 1,
      "byteOffset": 98352,
      "componentType": 5126,
      "count": 4098,
      "max": [
        0.9950749278068542,
        0.995074987411499
      ],
      "min": [
        0.0049250079318881035,
        0.037183523178100586
      ],
      "type": "VEC2"
    },
    {
      "bufferView": 0,
      "componentType": 5125,
      "count": 21120,
      "type": "SCALAR"
    },
    {
      "bufferView": 2,
      "byteOffset": 98352,
      "componentType": 5126,
      "count": 4262,
      "max": [
        0.708365797996521,
        1.1795473098754883,
        2.0877556800842285
      ],
      "min": [
        -0.955947995185852,
        -0.9079545736312866,
        -2.1208813190460205
      ],
      "type": "VEC3"
    },
    {
      "bufferView": 2,
      "byteOffset": 149496,
      "componentType": 5126,
      "count": 4262,
      "max": [
        1.0,
        1.0,
        1.0
      ],
      "min": [
        -1.0,
        -1.0,
        -1.0
      ],
      "type": "VEC3"
    },
    {
      "bufferView": 3,
      "byteOffset": 65568,
      "componentType": 5126,
      "count": 4262,
      "max": [
        0.9999997615814209,
        1.0,
        0.8619446158409119,
        -1.0
      ],
      "min": [
        -1.0,
        -1.0,
        -0.9999961853027344,
        -1.0
      ],
      "type": "VEC4"
    },
    {
      "bufferView": 1,
      "byteOffset": 131136,
      "componentType": 5126,
      "count": 4262,
      "max": [
        0.8979609608650208,
        0.995074987411499
      ],
      "min": [
        0.00492498092353344,
        0.14323490858078003
      ],
      "type": "VEC2"
    },
    {
      "bufferView": 1,
      "byteOffset": 165232,
      "componentType": 5126,
      "count": 4262,
      "max": [
        0.8979609608650208,
        0.995074987411499
      ],
      "min": [
        0.00492498092353344,
        0.14323490858078003
      ],
      "type": "VEC2"
    },
    {
      "bufferView": 1,
      "byteOffset": 199328,
      "componentType": 5126,
      "count": 4262,
      "max": [
        0.8979609608650208,
        0.995074987411499
      ],
      "min": [
        0.00492498092353344,
        0.14323490858078003
      ],
      "type": "VEC2"
    },
    {
      "bufferView": 1,
      "byteOffset": 233424,
      "componentType": 5126,
      "count": 4262,
      "max": [
        0.8979609608650208,
        0.995074987411499
      ],
      "min": [
        0.00492498092353344,
        0.14323490858078003
      ],
      "type": "VEC2"
    },
    {
      "bufferView": 0,
      "byteOffset": 84480,
      "componentType": 5125,
      "count": 22848,
      "type": "SCALAR"
    },
    {
      "bufferView": 2,
      "byteOffset": 200640,
      "componentType": 5126,
      "count": 1330,
      "max": [
        -0.0937572568655014,
        0.814287006855011,
        1.7518080472946167
      ],
      "min": [
        -0.294532835483551,
        -0.10113009810447693,
        -1.498133897781372
      ],
      "type": "VEC3"
    },
    {
      "bufferView": 2,
      "byteOffset": 216600,
      "componentType": 5126,
      "count": 1330,
      "max": [
        1.0,
        0.9940789937973022,
        0.9992594122886658
      ],
      "min": [
        -1.0,
        -0.9940789937973022,
        -0.9992594122886658
      ],
      "type": "VEC3"
    },
    {
      "bufferView": 3,
      "byteOffset": 133760,
      "componentType": 5126,
      "count": 1330,
      "max": [
        0.9999882578849792,
        0.7616261839866638,
        0.973818838596344,
        -1.0
      ],
      "min": [
        -0.999993085861206,
        -0.8382231593132019,
        -0.9692007899284363,
        -1.0
      ],
      "type": "VEC4"
    },
    {
      "bufferView": 1,
      "byteOffset": 267520,
      "componentType": 5126,
      "count": 1330,
      "max": [
        0.9304975867271423,
        0.79401695728302
      ],
      "min": [
        0.10444382578134537,
        0.04916435480117798
      ],
      "type": "VEC2"
    },
    {
      "bufferView": 1,
      "byteOffset": 278160,
      "componentType": 5126,
      "count": 1330,
      "max": [
        0.9304975867271423,
        0.79401695728302
      ],
      "min": [
        0.10444382578134537,
        0.04916435480117798
      ],
      "type": "VEC2"
    },
    {
      "bufferView": 1,
      "byteOffset": 288800,
      "componentType": 5126,
      "count": 1330,
      "max": [
        0.9304975867271423,
        0.79401695728302
      ],
      "min": [
        0.10444382578134537,
        0.04916435480117798
      ],
      "type": "VEC2"
    },
    {
      "bufferView": 1,
      "byteOffset": 299440,
      "componentType": 5126,
      "count": 1330,
      "max": [
        0.9304975867271423,
        0.79401695728302
      ],
      "min": [
        0.10444382578134537,
        0.04916435480117798
      ],
      "type": "VEC2"
    },
    {
      "bufferView": 0,
      "byteOffset": 175872,
      "componentType": 5125,
      "count": 6528,
      "type": "SCALAR"
    }
  ],
  "asset": {
    "extras": {
      "author": "INinja (https://sketchfab.com/aleksandarpopovic2)",
      "license": "CC-BY-4.0 (http://creativecommons.org/licenses/by/4.0/)",
      "source": "https://sketchfab.com/3d-models/two-seater-sofa-bed-70d1bd86df314320beb29f3d1dcfe349",
      "title": "Two Seater Sofa Bed"
    },
    "generator": "Sketchfab-15.30.0",
    "version": "2.0"
  },
  "bufferViews": [
    {
      "buffer": 0,
      "byteLength": 201984,
      "name": "floatBufferViews",
      "target": 34963
    },
    {
      "buffer": 0,
      "byteLength": 310080,
      "byteOffset": 201984,
      "byteStride": 8,
      "name": "floatBufferViews",
      "target": 34962
    },
    {
      "buffer": 0,
      "byteLength": 232560,
      "byteOffset": 512064,
      "byteStride": 12,
      "name": "floatBufferViews",
      "target": 34962
    },
    {
      "buffer": 0,
      "byteLength": 155040,
      "byteOffset": 744624,
      "byteStride": 16,
      "name": "floatBufferViews",
      "target": 34962
    }
  ],
  "buffers": [
    {
      "byteLength": 899664,
      "uri": "scene.bin"
    }
  ],
  "extensionsUsed": [
    "KHR_materials_specular"
  ],
  "images": [
    {
      "uri": "textures/fabric_baseColor.png"
    },
    {
      "uri": "textures/fabric_metallicRoughness.png"
    },
    {
      "uri": "textures/fabric_normal.png"
    },
    {
      "uri": "textures/wood_baseColor.png"
    },
    {
      "uri": "textures/wood_metallicRoughness.png"
    },
    {
      "uri": "textures/wood_normal.png"
    },
    {
      "uri": "textures/leather_baseColor.png"
    },
    {
      "uri": "textures/leather_metallicRoughness.png"
    },
    {
      "uri": "textures/leather_normal.png"
    },
    {
      "uri": "textures/leather_specularf0.png"
    }
  ],
  "materials": [
    {
      "doubleSided": true,
      "name": "fabric",
      "normalTexture": {
        "index": 2
      },
      "pbrMetallicRoughness": {
        "baseColorTexture": {
          "index": 0
        },
        "metallicRoughnessTexture": {
          "index": 1
        }
      }
    },
    {
      "doubleSided": true,
      "name": "wood",
      "normalTexture": {
        "index": 5
      },
      "pbrMetallicRoughness": {
        "baseColorTexture": {
          "index": 3
        },
        "metallicRoughnessTexture": {
          "index": 4
        }
      }
    },
    {
      "doubleSided": true,
      "extensions": {
        "KHR_materials_specular": {
          "specularColorFactor": [
            1.0,
            1.0,
            1.0
          ],
          "specularFactor": 1.0,
          "specularTexture": {
            "index": 9
          }
        }
      },
      "name": "leather",
      "normalTexture": {
        "index": 8
      },
      "pbrMetallicRoughness": {
        "baseColorTexture": {
          "index": 6
        },
        "metallicRoughnessTexture": {
          "index": 7
        }
      }
    }
  ],
  "meshes": [
    {
      "name": "Object_0",
      "primitives": [
        {
          "attributes": {
            "NORMAL": 1,
            "POSITION": 0,
            "TANGENT": 2,
            "TEXCOORD_0": 3,
            "TEXCOORD_1": 4,
            "TEXCOORD_2": 5,
            "TEXCOORD_3": 6
          },
          "indices": 7,
          "material": 0,
          "mode": 4
        }
      ]
    },
    {
      "name": "Object_1",
      "primitives": [
        {
          "attributes": {
            "NORMAL": 9,
            "POSITION": 8,
            "TANGENT": 10,
            "TEXCOORD_0": 11,
            "TEXCOORD_1": 12,
            "TEXCOORD_2": 13,
            "TEXCOORD_3": 14
          },
          "indices": 15,
          "material": 1,
          "mode": 4
        }
      ]
    },
    {
      "name": "Object_2",
      "primitives": [
        {
          "attributes": {
            "NORMAL": 17,
            "POSITION": 16,
            "TANGENT": 18,
            "TEXCOORD_0": 19,
            "TEXCOORD_1": 20,
            "TEXCOORD_2": 21,
            "TEXCOORD_3": 22
          },
          "indices": 23,
          "material": 2,
          "mode": 4
        }
      ]
    }
  ],
  "nodes": [
    {
      "children": [
        1
      ],
      "matrix": [
        1.0,
        0.0,
        0.0,
        0.0,
        0.0,
        2.220446049250313e-16,
        -1.0,
        0.0,
        0.0,
        1.0,
        2.220446049250313e-16,
        0.0,
        0.0,
        0.0,
        0.0,
        1.0
      ],
      "name": "Sketchfab_model"
    },
    {
      "children": [
        2
      ],
      "name": "root"
    },
    {
      "children": [
        3
      ],
      "matrix": [
        1.0,
        0.0,
        0.0,
        0.0,
        0.0,
        2.220446049250313e-16,
        1.0,
        0.0,
        0.0,
        -1.0,
        2.220446049250313e-16,
        0.0,
        0.0,
        0.0,
        0.0,
        1.0
      ],
      "name": "GLTF_SceneRootNode"
    },
    {
      "children": [
        4,
        5,
        6
      ],
      "matrix": [
        0.0,
        -1.0,
        -0.0,
        0.0,
        1.0,
        0.0,
        0.0,
        0.0,
        0.0,
        -0.0,
        1.0,
        0.0,
        0.0,
        0.0,
        0.0,
        1.0
      ],
      "name": "Sofa.005_0"
    },
    {
      "mesh": 0,
      "name": "Object_4"
    },
    {
      "mesh": 1,
      "name": "Object_5"
    },
    {
      "mesh": 2,
      "name": "Object_6"
    }
  ],
  "samplers": [
    {
      "magFilter": 9729,
      "minFilter": 9987,
      "wrapS": 10497,
      "wrapT": 10497
    }
  ],
  "scene": 0,
  "scenes": [
    {
      "name": "Sketchfab_Scene",
      "nodes": [
        0
      ]
    }
  ],
  "textures": [
    {
      "sampler": 0,
      "source": 0
    },
    {
      "sampler": 0,
      "source": 1
    },
    {
      "sampler": 0,
      "source": 2
    },
    {
      "sampler": 0,
      "source": 3
    },
    {
      "sampler": 0,
      "source": 4
    },
    {
      "sampler": 0,
      "source": 5
    },
    {
      "sampler": 0,
      "source": 6
    },
    {
      "sampler": 0,
      "source": 7
    },
    {
      "sampler": 0,
      "source": 8
    },
    {
      "sampler": 0,
      "source": 9
    }
  ]
}
